<svg width="816" height="813" viewBox="0 0 816 813" fill="none" xmlns="http://www.w3.org/2000/svg">
<rect width="816" height="813" rx="40" fill="#FAFAFA"/>
<path d="M631.636 251.705L552.091 273.011C549.25 260.227 544.278 247.917 537.176 236.08C530.311 224.006 519.657 214.181 505.216 206.605C491.011 198.793 471.598 194.886 446.977 194.886C413.597 194.886 384.596 202.58 359.974 217.969C335.353 233.12 321.267 252.415 317.716 275.852C314.165 296.449 318.9 312.902 331.92 325.213C344.941 337.524 366.722 347.585 397.261 355.398L475.386 375.284C522.261 387.358 555.642 405.469 575.528 429.616C595.652 453.527 602.517 484.659 596.125 523.011C590.917 554.261 577.304 582.197 555.287 606.818C533.27 631.439 505.098 650.852 470.77 665.057C436.442 679.261 398.208 686.364 356.068 686.364C299.96 686.364 255.689 674.29 223.256 650.142C190.822 625.758 173.54 590.483 171.409 544.318L255.216 524.432C257.347 553.551 267.763 575.568 286.466 590.483C305.405 605.161 331.92 612.5 366.011 612.5C405.074 612.5 437.626 604.214 463.668 587.642C489.709 570.833 504.506 550.71 508.057 527.273C511.608 508.097 507.82 492.116 496.693 479.332C485.803 466.548 466.864 456.96 439.875 450.568L353.227 429.261C304.932 417.187 271.078 398.722 251.665 373.864C232.489 349.006 226.097 317.756 232.489 280.114C237.697 249.337 250.955 222.112 272.261 198.438C293.805 174.763 320.794 156.179 353.227 142.685C385.898 129.19 421.409 122.443 459.761 122.443C513.739 122.443 554.103 134.28 580.855 157.955C607.607 181.392 624.534 212.642 631.636 251.705Z" fill="black"/>
</svg>
