<svg width="550" height="550" viewBox="0 0 550 550" fill="none" xmlns="http://www.w3.org/2000/svg">
<circle cx="275" cy="275" r="275" fill="#20C55E"/>
<path d="M103.045 323V229.909H167.955V248.182H125.545V267.273H164.636V285.591H125.545V304.727H167.955V323H103.045ZM203.182 229.909L224 298.091H224.773L245.591 229.909H270.773L239.364 323H209.409L178 229.909H203.182ZM359.795 263.636H337.068C336.765 261.303 336.144 259.197 335.205 257.318C334.265 255.439 333.023 253.833 331.477 252.5C329.932 251.167 328.098 250.152 325.977 249.455C323.886 248.727 321.568 248.364 319.023 248.364C314.508 248.364 310.614 249.47 307.341 251.682C304.098 253.894 301.598 257.091 299.841 261.273C298.114 265.455 297.25 270.515 297.25 276.455C297.25 282.636 298.129 287.818 299.886 292C301.674 296.152 304.174 299.288 307.386 301.409C310.629 303.5 314.462 304.545 318.886 304.545C321.371 304.545 323.629 304.227 325.659 303.591C327.72 302.955 329.523 302.03 331.068 300.818C332.644 299.576 333.932 298.076 334.932 296.318C335.962 294.53 336.674 292.515 337.068 290.273L359.795 290.409C359.402 294.53 358.205 298.591 356.205 302.591C354.235 306.591 351.523 310.242 348.068 313.545C344.614 316.818 340.402 319.424 335.432 321.364C330.492 323.303 324.826 324.273 318.432 324.273C310.008 324.273 302.462 322.424 295.795 318.727C289.159 315 283.917 309.576 280.068 302.455C276.22 295.333 274.295 286.667 274.295 276.455C274.295 266.212 276.25 257.53 280.159 250.409C284.068 243.288 289.356 237.879 296.023 234.182C302.689 230.485 310.159 228.636 318.432 228.636C324.068 228.636 329.28 229.424 334.068 231C338.856 232.545 343.068 234.818 346.705 237.818C350.341 240.788 353.295 244.439 355.568 248.773C357.841 253.106 359.25 258.061 359.795 263.636Z" fill="white"/>
<path d="M464.522 183.479C461.948 180.991 458.578 179.545 455.187 178.532C446.694 176.029 437.856 175.045 429.003 175.114C429.062 169.95 428.477 162.362 427.984 157.194C427.714 154.169 427.419 151.002 425.795 148.362C421.75 141.728 412.612 139.347 405.545 142.165C401.343 143.916 397.578 146.93 395.059 150.732C393.356 153.668 392.461 157.012 391.708 160.297C390.473 165.982 390.222 171.799 389.705 177.583C380.764 178.891 372.073 180.12 362.404 181.669C353.994 183.292 342.976 186.341 341.072 195.995C340.289 204.05 345.988 212.508 354.053 214.156C362.118 216.32 374.814 216.339 380.916 216.61C382.604 216.757 384.484 216.811 387.402 216.969C387.766 225.727 388.553 234.412 390.31 241.356C390.369 241.538 390.418 241.739 390.468 241.946C391.009 245.56 391.782 249.323 394.055 252.258C396.752 255.475 401.077 257.043 405.211 256.999C424.348 256.291 427.763 234.196 426.739 218.941C426.72 217.529 426.267 214.362 426.046 212.926C430.514 211.751 443.623 212.646 451.083 210.679C465.122 207.414 477.508 196.791 464.522 183.479ZM420.908 213.571C420.889 219.831 421.213 227.665 420.731 232.135C420.702 232.445 420.662 232.765 420.628 233.084C420.515 233.807 420.387 234.535 420.239 235.248C418.453 242.389 416.233 248.152 410.053 249.745C406.352 250.616 401.609 250.813 399.758 248.526C406.707 248.123 411.864 241.739 412.936 235.061C414.058 224.065 414.486 213.049 414.737 203.14C424.003 202.004 433.363 201.743 442.575 200.042C445.783 199.599 450.064 199.147 452.535 196.85C453.096 196.423 453.622 195.941 454.085 195.409C456.339 192.985 456.988 189.902 456.491 186.99C457.702 187.605 458.824 188.244 459.754 189.262C466.795 195.818 461.294 203.204 451.866 204.738C443.81 206.037 435.607 205.771 427.502 206.642C425.396 206.838 423.068 207.517 421.937 209.445C421.223 210.679 420.962 212.149 420.908 213.571ZM422.483 151.096C424.323 156.933 424.692 166.847 424.702 175.198C421.991 175.321 419.289 175.571 416.598 175.881C416.824 170.914 417.306 165.401 417.375 159.244C417.547 154.622 416.051 149.906 412.636 146.68C412.159 146.237 411.637 145.814 411.091 145.421C415.81 145.116 420.362 147.053 422.483 151.096ZM369.962 211.997C361.124 211.372 353.394 210.861 349.053 206.71C356.72 211.584 366.685 207.753 375.1 206.853C379.115 206.401 383.121 205.83 387.126 205.324C387.151 207.714 387.19 210.143 387.259 212.607C383.76 212.42 373.018 212.218 369.962 211.997Z" fill="white"/>
</svg>
