<svg width="40" height="40" viewBox="0 0 40 40" fill="none" xmlns="http://www.w3.org/2000/svg">
<rect width="40" height="40" rx="4" fill="#0A0A0A"/>
<path d="M20.0682 33.5455C17.6023 33.5455 15.5795 32.9659 14 31.8068C12.4318 30.6477 11.3409 29.0511 10.7273 27.017C10.1136 24.983 10.0227 22.6591 10.4545 20.0455C10.8864 17.3864 11.7614 15.0398 13.0795 13.0057C14.3977 10.9602 16.0398 9.36364 18.0057 8.21591C19.9716 7.05682 22.1364 6.47727 24.5 6.47727C26.3409 6.47727 27.9432 6.81818 29.3068 7.5C30.6705 8.18182 31.7216 9.13636 32.4602 10.3636C33.1989 11.5909 33.5455 13.0227 33.5 14.6591H29.4773C29.3636 13.4659 28.8523 12.4091 27.9432 11.4886C27.0455 10.5568 25.7159 10.0909 23.9545 10.0909C22.3864 10.0909 20.9432 10.5 19.625 11.3182C18.3068 12.125 17.1989 13.267 16.3011 14.7443C15.4034 16.2102 14.7955 17.9318 14.4773 19.9091C14.1364 21.9318 14.1648 23.6932 14.5625 25.1932C14.9602 26.6932 15.6818 27.858 16.7273 28.6875C17.7727 29.517 19.0909 29.9318 20.6818 29.9318C21.7273 29.9318 22.7045 29.75 23.6136 29.3864C24.5227 29.0227 25.3295 28.5 26.0341 27.8182C26.7386 27.1364 27.2955 26.3182 27.7045 25.3636H31.7273C31.2273 26.9091 30.4261 28.3011 29.3239 29.5398C28.2216 30.767 26.8864 31.7443 25.3182 32.4716C23.75 33.1875 22 33.5455 20.0682 33.5455Z" fill="white"/>
</svg>
